<?xml version="1.0" encoding="UTF-8" standalone="no"?>
<!DOCTYPE svg PUBLIC "-//W3C//DTD SVG 1.1//EN"
 "http://www.w3.org/Graphics/SVG/1.1/DTD/svg11.dtd">
<!-- Generated by graphviz version 2.38.0 (20140413.2041)
 -->
<!-- Title: snakemake_dag Pages: 1 -->
<svg width="769pt" height="620pt"
 viewBox="0.00 0.00 769.00 620.00" xmlns="http://www.w3.org/2000/svg" xmlns:xlink="http://www.w3.org/1999/xlink">
<g id="graph0" class="graph" transform="scale(1 1) rotate(0) translate(4 616)">
<title>snakemake_dag</title>
<polygon fill="white" stroke="none" points="-4,4 -4,-616 765,-616 765,4 -4,4"/>
<!-- 0 -->
<g id="node1" class="node"><title>0</title>
<path fill="none" stroke="#56d87b" stroke-width="2" d="M340,-36C340,-36 268,-36 268,-36 262,-36 256,-30 256,-24 256,-24 256,-12 256,-12 256,-6 262,-0 268,-0 268,-0 340,-0 340,-0 346,-0 352,-6 352,-12 352,-12 352,-24 352,-24 352,-30 346,-36 340,-36"/>
<text text-anchor="middle" x="304" y="-15.5" font-family="sans" font-size="10.00">make_summary</text>
</g>
<!-- 1 -->
<g id="node2" class="node"><title>1</title>
<path fill="none" stroke="#56b9d8" stroke-width="2" d="M84,-108C84,-108 12,-108 12,-108 6,-108 0,-102 0,-96 0,-96 0,-84 0,-84 0,-78 6,-72 12,-72 12,-72 84,-72 84,-72 90,-72 96,-78 96,-84 96,-84 96,-96 96,-96 96,-102 90,-108 84,-108"/>
<text text-anchor="middle" x="48" y="-87.5" font-family="sans" font-size="10.00">make_rulegraph</text>
</g>
<!-- 1&#45;&gt;0 -->
<g id="edge11" class="edge"><title>1&#45;&gt;0</title>
<path fill="none" stroke="grey" stroke-width="2" d="M96.0625,-75.8168C100.772,-74.5265 105.479,-73.2375 110,-72 155.598,-59.5201 207.232,-45.4153 245.761,-34.8955"/>
<polygon fill="grey" stroke="grey" stroke-width="2" points="247.038,-38.1752 255.763,-32.1649 245.194,-31.4223 247.038,-38.1752"/>
</g>
<!-- 2 -->
<g id="node3" class="node"><title>2</title>
<path fill="none" stroke="#97d856" stroke-width="2" d="M222.5,-612C222.5,-612 109.5,-612 109.5,-612 103.5,-612 97.5,-606 97.5,-600 97.5,-600 97.5,-588 97.5,-588 97.5,-582 103.5,-576 109.5,-576 109.5,-576 222.5,-576 222.5,-576 228.5,-576 234.5,-582 234.5,-588 234.5,-588 234.5,-600 234.5,-600 234.5,-606 228.5,-612 222.5,-612"/>
<text text-anchor="middle" x="166" y="-591.5" font-family="sans" font-size="10.00">get_codon_variant_table</text>
</g>
<!-- 2&#45;&gt;0 -->
<g id="edge7" class="edge"><title>2&#45;&gt;0</title>
<path fill="none" stroke="grey" stroke-width="2" d="M157.501,-575.993C145.228,-549.822 124,-497.79 124,-451 124,-451 124,-451 124,-161 124,-115.188 141.477,-102.115 176,-72 195.993,-54.5606 222.52,-42.31 246.239,-34.0145"/>
<polygon fill="grey" stroke="grey" stroke-width="2" points="247.479,-37.2906 255.858,-30.8076 245.265,-30.6499 247.479,-37.2906"/>
</g>
<!-- 3 -->
<g id="node4" class="node"><title>3</title>
<path fill="none" stroke="#78d856" stroke-width="2" d="M298.5,-468C298.5,-468 179.5,-468 179.5,-468 173.5,-468 167.5,-462 167.5,-456 167.5,-456 167.5,-444 167.5,-444 167.5,-438 173.5,-432 179.5,-432 179.5,-432 298.5,-432 298.5,-432 304.5,-432 310.5,-438 310.5,-444 310.5,-444 310.5,-456 310.5,-456 310.5,-462 304.5,-468 298.5,-468"/>
<text text-anchor="middle" x="239" y="-447.5" font-family="sans" font-size="10.00">aggregate_variant_counts</text>
</g>
<!-- 2&#45;&gt;3 -->
<g id="edge12" class="edge"><title>2&#45;&gt;3</title>
<path fill="none" stroke="grey" stroke-width="2" d="M166.736,-575.918C168.18,-557.215 172.444,-526.846 185,-504 190.921,-493.226 199.73,-483.247 208.523,-474.921"/>
<polygon fill="grey" stroke="grey" stroke-width="2" points="211.072,-477.336 216.174,-468.051 206.395,-472.128 211.072,-477.336"/>
</g>
<!-- 12 -->
<g id="node13" class="node"><title>12</title>
<path fill="none" stroke="#59d856" stroke-width="2" d="M271.5,-540C271.5,-540 206.5,-540 206.5,-540 200.5,-540 194.5,-534 194.5,-528 194.5,-528 194.5,-516 194.5,-516 194.5,-510 200.5,-504 206.5,-504 206.5,-504 271.5,-504 271.5,-504 277.5,-504 283.5,-510 283.5,-516 283.5,-516 283.5,-528 283.5,-528 283.5,-534 277.5,-540 271.5,-540"/>
<text text-anchor="middle" x="239" y="-519.5" font-family="sans" font-size="10.00">count_variants</text>
</g>
<!-- 2&#45;&gt;12 -->
<g id="edge28" class="edge"><title>2&#45;&gt;12</title>
<path fill="none" stroke="grey" stroke-width="2" d="M184.045,-575.697C193.062,-567.05 204.118,-556.449 213.943,-547.027"/>
<polygon fill="grey" stroke="grey" stroke-width="2" points="216.367,-549.552 221.163,-540.104 211.522,-544.499 216.367,-549.552"/>
</g>
<!-- 3&#45;&gt;0 -->
<g id="edge8" class="edge"><title>3&#45;&gt;0</title>
<path fill="none" stroke="grey" stroke-width="2" d="M222.292,-431.812C199.646,-406.622 162,-357.199 162,-307 162,-307 162,-307 162,-161 162,-105.62 216.671,-64.2945 258.167,-40.9038"/>
<polygon fill="grey" stroke="grey" stroke-width="2" points="259.963,-43.911 267.062,-36.0461 256.608,-37.7674 259.963,-43.911"/>
</g>
<!-- 4 -->
<g id="node5" class="node"><title>4</title>
<path fill="none" stroke="#d85656" stroke-width="2" d="M297.5,-324C297.5,-324 202.5,-324 202.5,-324 196.5,-324 190.5,-318 190.5,-312 190.5,-312 190.5,-300 190.5,-300 190.5,-294 196.5,-288 202.5,-288 202.5,-288 297.5,-288 297.5,-288 303.5,-288 309.5,-294 309.5,-300 309.5,-300 309.5,-312 309.5,-312 309.5,-318 303.5,-324 297.5,-324"/>
<text text-anchor="middle" x="250" y="-303.5" font-family="sans" font-size="10.00">counts_to_cells_ratio</text>
</g>
<!-- 3&#45;&gt;4 -->
<g id="edge14" class="edge"><title>3&#45;&gt;4</title>
<path fill="none" stroke="grey" stroke-width="2" d="M240.327,-431.871C242.202,-407.67 245.646,-363.211 247.878,-334.393"/>
<polygon fill="grey" stroke="grey" stroke-width="2" points="251.386,-334.43 248.668,-324.189 244.406,-333.889 251.386,-334.43"/>
</g>
<!-- 5 -->
<g id="node6" class="node"><title>5</title>
<path fill="none" stroke="#b6d856" stroke-width="2" d="M461.5,-396C461.5,-396 384.5,-396 384.5,-396 378.5,-396 372.5,-390 372.5,-384 372.5,-384 372.5,-372 372.5,-372 372.5,-366 378.5,-360 384.5,-360 384.5,-360 461.5,-360 461.5,-360 467.5,-360 473.5,-366 473.5,-372 473.5,-372 473.5,-384 473.5,-384 473.5,-390 467.5,-396 461.5,-396"/>
<text text-anchor="middle" x="423" y="-375.5" font-family="sans" font-size="10.00">counts_to_scores</text>
</g>
<!-- 3&#45;&gt;5 -->
<g id="edge15" class="edge"><title>3&#45;&gt;5</title>
<path fill="none" stroke="grey" stroke-width="2" d="M284.011,-431.876C309.501,-422.179 341.568,-409.98 368.476,-399.743"/>
<polygon fill="grey" stroke="grey" stroke-width="2" points="370.033,-402.895 378.135,-396.068 367.544,-396.353 370.033,-402.895"/>
</g>
<!-- 4&#45;&gt;0 -->
<g id="edge1" class="edge"><title>4&#45;&gt;0</title>
<path fill="none" stroke="grey" stroke-width="2" d="M245.933,-287.761C237.412,-247.922 220.919,-147.136 252,-72 256.535,-61.0366 264.531,-51.1058 272.912,-42.8821"/>
<polygon fill="grey" stroke="grey" stroke-width="2" points="275.293,-45.4483 280.3,-36.1116 270.563,-40.2876 275.293,-45.4483"/>
</g>
<!-- 5&#45;&gt;0 -->
<g id="edge6" class="edge"><title>5&#45;&gt;0</title>
<path fill="none" stroke="grey" stroke-width="2" d="M406.458,-359.696C397.415,-349.727 386.383,-336.69 378,-324 338.776,-264.625 327.855,-248.335 308,-180 294.823,-134.649 297.293,-79.0555 300.499,-46.4774"/>
<polygon fill="grey" stroke="grey" stroke-width="2" points="303.997,-46.6778 301.592,-36.3595 297.038,-45.9254 303.997,-46.6778"/>
</g>
<!-- 6 -->
<g id="node7" class="node"><title>6</title>
<path fill="none" stroke="#d87556" stroke-width="2" d="M502.5,-324C502.5,-324 399.5,-324 399.5,-324 393.5,-324 387.5,-318 387.5,-312 387.5,-312 387.5,-300 387.5,-300 387.5,-294 393.5,-288 399.5,-288 399.5,-288 502.5,-288 502.5,-288 508.5,-288 514.5,-294 514.5,-300 514.5,-300 514.5,-312 514.5,-312 514.5,-318 508.5,-324 502.5,-324"/>
<text text-anchor="middle" x="451" y="-303.5" font-family="sans" font-size="10.00">scores_to_frac_escape</text>
</g>
<!-- 5&#45;&gt;6 -->
<g id="edge19" class="edge"><title>5&#45;&gt;6</title>
<path fill="none" stroke="grey" stroke-width="2" d="M429.921,-359.697C433.075,-351.813 436.878,-342.304 440.381,-333.546"/>
<polygon fill="grey" stroke="grey" stroke-width="2" points="443.694,-334.689 444.158,-324.104 437.195,-332.089 443.694,-334.689"/>
</g>
<!-- 6&#45;&gt;0 -->
<g id="edge2" class="edge"><title>6&#45;&gt;0</title>
<path fill="none" stroke="grey" stroke-width="2" d="M424.066,-287.82C393.481,-266.623 344.982,-227.497 323,-180 302.927,-136.628 301.123,-79.9585 302.185,-46.7144"/>
<polygon fill="grey" stroke="grey" stroke-width="2" points="305.696,-46.5336 302.632,-36.3914 298.702,-46.2304 305.696,-46.5336"/>
</g>
<!-- 7 -->
<g id="node8" class="node"><title>7</title>
<path fill="none" stroke="#d89556" stroke-width="2" d="M710,-252C710,-252 596,-252 596,-252 590,-252 584,-246 584,-240 584,-240 584,-228 584,-228 584,-222 590,-216 596,-216 596,-216 710,-216 710,-216 716,-216 722,-222 722,-228 722,-228 722,-240 722,-240 722,-246 716,-252 710,-252"/>
<text text-anchor="middle" x="653" y="-231.5" font-family="sans" font-size="10.00">call_strong_escape_sites</text>
</g>
<!-- 6&#45;&gt;7 -->
<g id="edge20" class="edge"><title>6&#45;&gt;7</title>
<path fill="none" stroke="grey" stroke-width="2" d="M500.156,-287.966C528.503,-278.142 564.325,-265.729 594.163,-255.389"/>
<polygon fill="grey" stroke="grey" stroke-width="2" points="595.32,-258.692 603.623,-252.111 593.028,-252.078 595.32,-258.692"/>
</g>
<!-- 8 -->
<g id="node9" class="node"><title>8</title>
<path fill="none" stroke="#d6d856" stroke-width="2" d="M626,-180C626,-180 558,-180 558,-180 552,-180 546,-174 546,-168 546,-168 546,-156 546,-156 546,-150 552,-144 558,-144 558,-144 626,-144 626,-144 632,-144 638,-150 638,-156 638,-156 638,-168 638,-168 638,-174 632,-180 626,-180"/>
<text text-anchor="middle" x="592" y="-159.5" font-family="sans" font-size="10.00">escape_profiles</text>
</g>
<!-- 6&#45;&gt;8 -->
<g id="edge21" class="edge"><title>6&#45;&gt;8</title>
<path fill="none" stroke="grey" stroke-width="2" d="M483.532,-287.775C499.258,-278.483 517.762,-266.043 532,-252 550.84,-233.417 567.241,-208.064 578.112,-189.171"/>
<polygon fill="grey" stroke="grey" stroke-width="2" points="581.297,-190.646 583.133,-180.211 575.191,-187.224 581.297,-190.646"/>
</g>
<!-- 9 -->
<g id="node10" class="node"><title>9</title>
<path fill="none" stroke="#56d8d8" stroke-width="2" d="M439.5,-180C439.5,-180 344.5,-180 344.5,-180 338.5,-180 332.5,-174 332.5,-168 332.5,-168 332.5,-156 332.5,-156 332.5,-150 338.5,-144 344.5,-144 344.5,-144 439.5,-144 439.5,-144 445.5,-144 451.5,-150 451.5,-156 451.5,-156 451.5,-168 451.5,-168 451.5,-174 445.5,-180 439.5,-180"/>
<text text-anchor="middle" x="392" y="-159.5" font-family="sans" font-size="10.00">mds_escape_profiles</text>
</g>
<!-- 6&#45;&gt;9 -->
<g id="edge24" class="edge"><title>6&#45;&gt;9</title>
<path fill="none" stroke="grey" stroke-width="2" d="M430.497,-287.956C420.503,-278.452 409.306,-265.77 403,-252 394.154,-232.685 391.613,-208.675 391.169,-190.462"/>
<polygon fill="grey" stroke="grey" stroke-width="2" points="394.668,-190.211 391.122,-180.227 387.668,-190.243 394.668,-190.211"/>
</g>
<!-- 10 -->
<g id="node11" class="node"><title>10</title>
<path fill="none" stroke="#56d89a" stroke-width="2" d="M477.5,-252C477.5,-252 424.5,-252 424.5,-252 418.5,-252 412.5,-246 412.5,-240 412.5,-240 412.5,-228 412.5,-228 412.5,-222 418.5,-216 424.5,-216 424.5,-216 477.5,-216 477.5,-216 483.5,-216 489.5,-222 489.5,-228 489.5,-228 489.5,-240 489.5,-240 489.5,-246 483.5,-252 477.5,-252"/>
<text text-anchor="middle" x="451" y="-231.5" font-family="sans" font-size="10.00">output_pdbs</text>
</g>
<!-- 6&#45;&gt;10 -->
<g id="edge25" class="edge"><title>6&#45;&gt;10</title>
<path fill="none" stroke="grey" stroke-width="2" d="M451,-287.697C451,-279.983 451,-270.712 451,-262.112"/>
<polygon fill="grey" stroke="grey" stroke-width="2" points="454.5,-262.104 451,-252.104 447.5,-262.104 454.5,-262.104"/>
</g>
<!-- 11 -->
<g id="node12" class="node"><title>11</title>
<path fill="none" stroke="#d8b456" stroke-width="2" d="M572,-108C572,-108 496,-108 496,-108 490,-108 484,-102 484,-96 484,-96 484,-84 484,-84 484,-78 490,-72 496,-72 496,-72 572,-72 572,-72 578,-72 584,-78 584,-84 584,-84 584,-96 584,-96 584,-102 578,-108 572,-108"/>
<text text-anchor="middle" x="534" y="-87.5" font-family="sans" font-size="10.00">make_supp_data</text>
</g>
<!-- 6&#45;&gt;11 -->
<g id="edge27" class="edge"><title>6&#45;&gt;11</title>
<path fill="none" stroke="grey" stroke-width="2" d="M470.536,-287.618C480.174,-278.021 491.169,-265.358 498,-252 520.144,-208.699 528.751,-152.006 532.036,-118.739"/>
<polygon fill="grey" stroke="grey" stroke-width="2" points="535.555,-118.679 532.958,-108.408 528.583,-118.057 535.555,-118.679"/>
</g>
<!-- 7&#45;&gt;0 -->
<g id="edge3" class="edge"><title>7&#45;&gt;0</title>
<path fill="none" stroke="grey" stroke-width="2" d="M654.766,-215.95C657.219,-181.904 657.082,-105.872 612,-72 573.495,-43.0695 440.276,-28.7761 362.223,-22.7317"/>
<polygon fill="grey" stroke="grey" stroke-width="2" points="362.291,-19.2271 352.057,-21.9669 361.766,-26.2073 362.291,-19.2271"/>
</g>
<!-- 7&#45;&gt;8 -->
<g id="edge22" class="edge"><title>7&#45;&gt;8</title>
<path fill="none" stroke="grey" stroke-width="2" d="M637.921,-215.697C630.608,-207.305 621.69,-197.07 613.665,-187.861"/>
<polygon fill="grey" stroke="grey" stroke-width="2" points="616.114,-185.344 606.905,-180.104 610.836,-189.943 616.114,-185.344"/>
</g>
<!-- 8&#45;&gt;0 -->
<g id="edge5" class="edge"><title>8&#45;&gt;0</title>
<path fill="none" stroke="grey" stroke-width="2" d="M598.164,-143.75C603.995,-124.04 609.619,-91.9435 593,-72 564.268,-37.5197 438.481,-25.3994 362.645,-21.1912"/>
<polygon fill="grey" stroke="grey" stroke-width="2" points="362.46,-17.6768 352.291,-20.6484 362.094,-24.6672 362.46,-17.6768"/>
</g>
<!-- 8&#45;&gt;11 -->
<g id="edge26" class="edge"><title>8&#45;&gt;11</title>
<path fill="none" stroke="grey" stroke-width="2" d="M577.663,-143.697C570.709,-135.305 562.23,-125.07 554.599,-115.861"/>
<polygon fill="grey" stroke="grey" stroke-width="2" points="557.247,-113.571 548.172,-108.104 551.857,-118.038 557.247,-113.571"/>
</g>
<!-- 9&#45;&gt;0 -->
<g id="edge10" class="edge"><title>9&#45;&gt;0</title>
<path fill="none" stroke="grey" stroke-width="2" d="M381.385,-143.871C366.123,-119.244 337.86,-73.6377 320.041,-44.8845"/>
<polygon fill="grey" stroke="grey" stroke-width="2" points="322.895,-42.8457 314.653,-36.1893 316.945,-46.5331 322.895,-42.8457"/>
</g>
<!-- 10&#45;&gt;0 -->
<g id="edge9" class="edge"><title>10&#45;&gt;0</title>
<path fill="none" stroke="grey" stroke-width="2" d="M457.923,-215.674C464.23,-197.028 471.024,-166.96 460,-144 437.358,-96.8439 387.3,-61.8844 349.958,-41.1064"/>
<polygon fill="grey" stroke="grey" stroke-width="2" points="351.224,-37.8116 340.763,-36.1306 347.892,-43.9681 351.224,-37.8116"/>
</g>
<!-- 11&#45;&gt;0 -->
<g id="edge4" class="edge"><title>11&#45;&gt;0</title>
<path fill="none" stroke="grey" stroke-width="2" d="M483.81,-73.7247C447.895,-62.794 399.458,-48.0523 361.905,-36.6232"/>
<polygon fill="grey" stroke="grey" stroke-width="2" points="362.701,-33.207 352.115,-33.6437 360.663,-39.9037 362.701,-33.207"/>
</g>
<!-- 12&#45;&gt;3 -->
<g id="edge13" class="edge"><title>12&#45;&gt;3</title>
<path fill="none" stroke="grey" stroke-width="2" d="M239,-503.697C239,-495.983 239,-486.712 239,-478.112"/>
<polygon fill="grey" stroke="grey" stroke-width="2" points="242.5,-478.104 239,-468.104 235.5,-478.104 242.5,-478.104"/>
</g>
<!-- 13 -->
<g id="node14" class="node"><title>13</title>
<path fill="none" stroke="#569ad8" stroke-width="2" d="M749,-468C749,-468 663,-468 663,-468 657,-468 651,-462 651,-456 651,-456 651,-444 651,-444 651,-438 657,-432 663,-432 663,-432 749,-432 749,-432 755,-432 761,-438 761,-444 761,-444 761,-456 761,-456 761,-462 755,-468 749,-468"/>
<text text-anchor="middle" x="706" y="-447.5" font-family="sans" font-size="10.00">get_mut_bind_expr</text>
</g>
<!-- 13&#45;&gt;5 -->
<g id="edge17" class="edge"><title>13&#45;&gt;5</title>
<path fill="none" stroke="grey" stroke-width="2" d="M650.763,-435.337C602.757,-423.463 533.331,-406.29 483.766,-394.03"/>
<polygon fill="grey" stroke="grey" stroke-width="2" points="484.366,-390.573 473.818,-391.57 482.685,-397.369 484.366,-390.573"/>
</g>
<!-- 13&#45;&gt;8 -->
<g id="edge23" class="edge"><title>13&#45;&gt;8</title>
<path fill="none" stroke="grey" stroke-width="2" d="M714.796,-431.92C734.681,-390.671 777.854,-284.01 731,-216 712.373,-188.962 677.967,-175.708 648.048,-169.215"/>
<polygon fill="grey" stroke="grey" stroke-width="2" points="648.59,-165.755 638.103,-167.262 647.241,-172.624 648.59,-165.755"/>
</g>
<!-- 14 -->
<g id="node15" class="node"><title>14</title>
<path fill="none" stroke="#567bd8" stroke-width="2" d="M446.5,-468C446.5,-468 371.5,-468 371.5,-468 365.5,-468 359.5,-462 359.5,-456 359.5,-456 359.5,-444 359.5,-444 359.5,-438 365.5,-432 371.5,-432 371.5,-432 446.5,-432 446.5,-432 452.5,-432 458.5,-438 458.5,-444 458.5,-444 458.5,-456 458.5,-456 458.5,-462 452.5,-468 446.5,-468"/>
<text text-anchor="middle" x="409" y="-447.5" font-family="sans" font-size="10.00">get_variant_expr</text>
</g>
<!-- 14&#45;&gt;5 -->
<g id="edge18" class="edge"><title>14&#45;&gt;5</title>
<path fill="none" stroke="grey" stroke-width="2" d="M412.461,-431.697C414.003,-423.983 415.858,-414.712 417.578,-406.112"/>
<polygon fill="grey" stroke="grey" stroke-width="2" points="421.05,-406.597 419.579,-396.104 414.186,-405.224 421.05,-406.597"/>
</g>
<!-- 15 -->
<g id="node16" class="node"><title>15</title>
<path fill="none" stroke="#56d8b9" stroke-width="2" d="M563,-468C563,-468 489,-468 489,-468 483,-468 477,-462 477,-456 477,-456 477,-444 477,-444 477,-438 483,-432 489,-432 489,-432 563,-432 563,-432 569,-432 575,-438 575,-444 575,-444 575,-456 575,-456 575,-462 569,-468 563,-468"/>
<text text-anchor="middle" x="526" y="-447.5" font-family="sans" font-size="10.00">get_variant_bind</text>
</g>
<!-- 15&#45;&gt;5 -->
<g id="edge16" class="edge"><title>15&#45;&gt;5</title>
<path fill="none" stroke="grey" stroke-width="2" d="M500.803,-431.876C487.586,-422.893 471.208,-411.763 456.893,-402.034"/>
<polygon fill="grey" stroke="grey" stroke-width="2" points="458.532,-398.916 448.293,-396.19 454.597,-404.705 458.532,-398.916"/>
</g>
</g>
</svg>
